<svg width="18" height="21" viewBox="0 0 18 21" fill="none" xmlns="http://www.w3.org/2000/svg">
<path d="M0 18.5748V7.68614H17.9343V18.5748C17.9343 19.6557 17.0536 20.4964 16.0128 20.4964H1.92154C0.840672 20.4964 0 19.6557 0 18.5748ZM12.8102 10.7286V12.3298C12.8102 12.6101 13.0104 12.8102 13.2906 12.8102H14.8919C15.1321 12.8102 15.3723 12.6101 15.3723 12.3298V10.7286C15.3723 10.4884 15.1321 10.2482 14.8919 10.2482H13.2906C13.0104 10.2482 12.8102 10.4884 12.8102 10.7286ZM12.8102 15.8527V17.4539C12.8102 17.7342 13.0104 17.9343 13.2906 17.9343H14.8919C15.1321 17.9343 15.3723 17.7342 15.3723 17.4539V15.8527C15.3723 15.6125 15.1321 15.3723 14.8919 15.3723H13.2906C13.0104 15.3723 12.8102 15.6125 12.8102 15.8527ZM7.68614 10.7286V12.3298C7.68614 12.6101 7.8863 12.8102 8.16652 12.8102H9.7678C10.008 12.8102 10.2482 12.6101 10.2482 12.3298V10.7286C10.2482 10.4884 10.008 10.2482 9.7678 10.2482H8.16652C7.8863 10.2482 7.68614 10.4884 7.68614 10.7286ZM7.68614 15.8527V17.4539C7.68614 17.7342 7.8863 17.9343 8.16652 17.9343H9.7678C10.008 17.9343 10.2482 17.7342 10.2482 17.4539V15.8527C10.2482 15.6125 10.008 15.3723 9.7678 15.3723H8.16652C7.8863 15.3723 7.68614 15.6125 7.68614 15.8527ZM2.56205 10.7286V12.3298C2.56205 12.6101 2.76221 12.8102 3.04243 12.8102H4.64371C4.8839 12.8102 5.12409 12.6101 5.12409 12.3298V10.7286C5.12409 10.4884 4.8839 10.2482 4.64371 10.2482H3.04243C2.76221 10.2482 2.56205 10.4884 2.56205 10.7286ZM2.56205 15.8527V17.4539C2.56205 17.7342 2.76221 17.9343 3.04243 17.9343H4.64371C4.8839 17.9343 5.12409 17.7342 5.12409 17.4539V15.8527C5.12409 15.6125 4.8839 15.3723 4.64371 15.3723H3.04243C2.76221 15.3723 2.56205 15.6125 2.56205 15.8527ZM16.0128 2.56204C17.0536 2.56204 17.9343 3.44275 17.9343 4.48358V6.40511H0V4.48358C0 3.44275 0.840672 2.56204 1.92154 2.56204H3.84307V0.640509C3.84307 0.320253 4.12329 -2.86102e-06 4.48358 -2.86102e-06H5.76461C6.08486 -2.86102e-06 6.40512 0.320253 6.40512 0.640509V2.56204H11.5292V0.640509C11.5292 0.320253 11.8094 -2.86102e-06 12.1697 -2.86102e-06H13.4507C13.771 -2.86102e-06 14.0913 0.320253 14.0913 0.640509V2.56204H16.0128Z" fill="black"/>
</svg>
