<svg width="18" height="18" viewBox="0 0 18 18" fill="none" xmlns="http://www.w3.org/2000/svg">
<path d="M3.12501 5.75003L6.00001 6.58003L9.16001 4.28503L4.62501 4.41503C4.58053 4.417 4.53737 4.43081 4.50001 4.45503L3.06501 5.28003C3.02038 5.30477 2.98419 5.34232 2.96112 5.38784C2.93806 5.43336 2.92918 5.48476 2.93565 5.53538C2.94211 5.586 2.96361 5.63352 2.99737 5.67178C3.03113 5.71005 3.07559 5.73731 3.12501 5.75003Z" fill="black"/>
<path d="M17.26 3.18005L14.11 2.50005C13.8451 2.44254 13.5709 2.44269 13.3061 2.50049C13.0412 2.5583 12.7919 2.6724 12.575 2.83505L3.06002 9.75005L0.775021 9.65005C0.644138 9.6456 0.515165 9.68238 0.406311 9.75519C0.297457 9.82799 0.214223 9.93315 0.168362 10.0558C0.122501 10.1785 0.116329 10.3125 0.150719 10.4388C0.185108 10.5652 0.258322 10.6775 0.360021 10.7601L2.58502 12.5251C2.62165 12.5546 2.66525 12.5743 2.71165 12.5821C2.75805 12.59 2.80569 12.5859 2.85002 12.5701C3.48502 12.3251 5.85002 11.0701 8.64502 9.53505L9.20502 15.2901C9.20977 15.3399 9.22804 15.3875 9.25786 15.4277C9.28768 15.4679 9.32791 15.4993 9.37422 15.5183C9.42052 15.5373 9.47115 15.5434 9.52064 15.5357C9.57012 15.5281 9.61659 15.5071 9.65502 15.4751L10.905 14.4351C10.9734 14.3777 11.0195 14.298 11.035 14.2101L12.22 7.56505C14.22 6.45505 16.13 5.38005 17.475 4.62005C17.6146 4.5441 17.7275 4.42708 17.7983 4.28484C17.8692 4.14261 17.8946 3.98203 17.8711 3.82487C17.8476 3.6677 17.7764 3.52155 17.6671 3.40621C17.5578 3.29087 17.4157 3.21192 17.26 3.18005Z" fill="black"/>
</svg>
